/* XPM */
static const char *axial[] = {
"    16    13        5            1",
". c #FFFFFF",
"# c None",
"a c #000000",
"b c #f3f704",
"c c #f3f7f3",
"################",
"########aa######",
"#######a.a.#####",
"######a..#a#####",
"######a.##a.####",
"#####a..###a####",
"####aaaaaaaa.###",
"####a.......a###",
"###a..######a.##",
"##a..########a##",
"##a.#########a.#",
"###.##########.#",
"################"
};
