/* XPM */
static const char *blobs[] = {
"    16    13        5            1",
". c #FFFF00",
"# c None",
"a c #FF0000",
"b c #0000FF",
"c c #f3f7f3",
"################",
"###aa########a##",
"##aaaaa#####aa##",
"##aaaa##########",
"##aaaa##########",
"#aaaaa###bb#####",
"#########bbbb###",
"##b#######bbb###",
"#bbb#######bbb##",
"#####aa#########",
"####aaaa########",
"#####a##########",
"################"
};
