/* XPM */
static const char *colortab[] = {
/* width height num_colors chars_per_pixel */
"   109    31        4            1",
/* colors */
". c #000000",
"# c #00ffff",
"a c #ff00ff",
"b c none",
/* pixels */
"bbbbbbbbbbbbbbbbbbbbbbbbbbbbbbbbbbbbbbbbbbbbbbbbbbbbbbbbbbbbbbbbbbbbbbbbbbbbbbbbbbbbbbbbbbbbbbbbbbbbbbbbbbbbb",
"bbbbbbbbbbbbbbbbbbbbbbbbbbbbbbbbbbbbbbbbbbbbbbbbbbbbbbbbbbbbbbbbbbbbbbbbbbbbbbbbbbbbbbbbbbbbbbbbbbbbbbbbbbbbb",
"bbbbbbbbbbbbbbbbbbbbbbbbbbbbbbbbbbbbbbbbbbbbbbbbbbbbbbbbbbbbbbbbbbbbbbbbbbbbbbbbbbbbbbbbbbbbbbbbbbbbbbbbbbbbb",
"bbbbbbbbbbbbbbbbbbbbbb...................................................................bbbbbbbbbbbbbbbbbbbb",
"bbbbbbbbbbbbbbbbbbbbbb.#################################################################.bbbbbbbbbbbbbbbbbbbb",
"bbbbbbbbbbbbbbbbbbbbbb.#################################################################.bbbbbbbbbbbbbbbbbbbb",
"bbbbbbbbbbbbbbbbbbbbbb.#################################################################.bbbbbbbbbbbbbbbbbbbb",
"bbbbbbbbbbbbbbbbbbbbbb.#################################################################.bbbbbbbbbbbbbbbbbbbb",
"bbbbbbbbbbbbbbbbbbbbbb.#################################################################.bbbbbbbbbbbbbbbbbbbb",
"bbbbbbbbbbbbbbbbbbbbbb.#################################################################.bbbbbbbbbbbbbbbbbbbb",
"bbbbbbbbbbbbbbbbbbbbbb.#################################################################.bbbbbbbbbbbbbbbbbbbb",
"bbbbbbbbbbbbbbbbbbbbbb.#################################################################.bbbbbbbbbbbbbbbbbbbb",
"bbbbbbbbbbbbbbbbbbbbbb...................................................................bbbbbbbbbbbbbbbbbbbb",
"bbbbbbbbbbbbbbbbbbbbbbbbbbbbbbbbbbbbbbbbbbbbbbbbbbbbbbbbbbbbbbbbbbbbbbbbbbbbbbbbbbbbbbbbbbbbbbbbbbbbbbbbbbbbb",
"bbbbbbbbbbbbbbbbbbbbbbbbbbbbbbbbbbbbbbbbbbbbbbbbbbbbbbbbbbbbbbbbbbbbbbbbbbbbbbbbbbbbbbbbbbbbbbbbbbbbbbbbbbbbb",
"bbbbbbbbbbbbbbbbbbbbbbbbbbbbbbbbbbbbbbbbbbbbbbbbbbbbbbbbbbbbbbbbbbbbbbbbbbbbbbbbbbbbbbbbbbbbbbbbbbbbbbbbbbbbb",
"bbbbbbbbbbbbbbbbbbbbbbbbbbbbbbbbbbbbbbbbbbbbbbbbbbbbbbbbbbbbbbbbbbbbbbbbbbbbbbbbbbbbbbbbbbbbbbbbbbbbbbbbbbbbb",
"bbbbbbbbbbbbbbbbbbbbbbbbbbbbbbbbbbbbbbbbbbbbbbbbbbbbbbbbbbbbbbbbbbbbbbbbbbbbbbbbbbbbbbbbbbbbbbbbbbbbbbbbbbbbb",
"bbbbbbbbbbbbbbbbbbbbbb...................................................................bbbbbbbbbbbbbbbbbbbb",
"bbbbbbbbbbbbbbbbbbbbbb.aaaaaaaaaaaaaaaaaaaaaaaaaaaaaaaaaaaaaaaaaaaaaaaaaaaaaaaaaaaaaaaaa.bbbbbbbbbbbbbbbbbbbb",
"bbbbbbbbbbbbbbbbbbbbbb.aaaaaaaaaaaaaaaaaaaaaaaaaaaaaaaaaaaaaaaaaaaaaaaaaaaaaaaaaaaaaaaaa.bbbbbbbbbbbbbbbbbbbb",
"bbbbbbbbbbbbbbbbbbbbbb.aaaaaaaaaaaaaaaaaaaaaaaaaaaaaaaaaaaaaaaaaaaaaaaaaaaaaaaaaaaaaaaaa.bbbbbbbbbbbbbbbbbbbb",
"bbbbbbbbbbbbbbbbbbbbbb.aaaaaaaaaaaaaaaaaaaaaaaaaaaaaaaaaaaaaaaaaaaaaaaaaaaaaaaaaaaaaaaaa.bbbbbbbbbbbbbbbbbbbb",
"bbbbbbbbbbbbbbbbbbbbbb.aaaaaaaaaaaaaaaaaaaaaaaaaaaaaaaaaaaaaaaaaaaaaaaaaaaaaaaaaaaaaaaaa.bbbbbbbbbbbbbbbbbbbb",
"bbbbbbbbbbbbbbbbbbbbbb.aaaaaaaaaaaaaaaaaaaaaaaaaaaaaaaaaaaaaaaaaaaaaaaaaaaaaaaaaaaaaaaaa.bbbbbbbbbbbbbbbbbbbb",
"bbbbbbbbbbbbbbbbbbbbbb.aaaaaaaaaaaaaaaaaaaaaaaaaaaaaaaaaaaaaaaaaaaaaaaaaaaaaaaaaaaaaaaaa.bbbbbbbbbbbbbbbbbbbb",
"bbbbbbbbbbbbbbbbbbbbbb.aaaaaaaaaaaaaaaaaaaaaaaaaaaaaaaaaaaaaaaaaaaaaaaaaaaaaaaaaaaaaaaaa.bbbbbbbbbbbbbbbbbbbb",
"bbbbbbbbbbbbbbbbbbbbbb...................................................................bbbbbbbbbbbbbbbbbbbb",
"bbbbbbbbbbbbbbbbbbbbbbbbbbbbbbbbbbbbbbbbbbbbbbbbbbbbbbbbbbbbbbbbbbbbbbbbbbbbbbbbbbbbbbbbbbbbbbbbbbbbbbbbbbbbb",
"bbbbbbbbbbbbbbbbbbbbbbbbbbbbbbbbbbbbbbbbbbbbbbbbbbbbbbbbbbbbbbbbbbbbbbbbbbbbbbbbbbbbbbbbbbbbbbbbbbbbbbbbbbbbb",
"bbbbbbbbbbbbbbbbbbbbbbbbbbbbbbbbbbbbbbbbbbbbbbbbbbbbbbbbbbbbbbbbbbbbbbbbbbbbbbbbbbbbbbbbbbbbbbbbbbbbbbbbbbbbb"
};
