/* XPM */
static const char *coronal[] = {
"    16    13        5            1",
". c #FFFFFF",
"# c None",
"a c #000000",
"b c #f3f704",
"c c #f3f7f3",
"################",
"######aaaa######",
"####aa....aa####",
"###a...####..###",
"##a..###########",
"##a.############",
"##a.############",
"##a.############",
"###a############",
"####aa####aa####",
"#####.aaaa...###",
"#######....#####",
"################"
};
