/* XPM */
static const char * corr[] = {
"16 13 2 1",
" 	c None",
".	c #FF0000",
"..    ..      ..",
"..    ..      ..",
".. .. ..      ..",
".. .. ..      ..",
".. .. .. ..   ..",
".. .. .. .. ....",
"................",
".. .. .. .. ....",
".. .. .. ..   ..",
".. .. ..      ..",
".. .. ..      ..",
"..    ..      ..",
"..    ..      .."};
