/* XPM */
static const char * findmaxz[] = {
"16 16 51 1",
" 	c None",
".	c #0D3652",
"+	c #124D6F",
"@	c #337F9E",
"#	c #000000",
"$	c #254A64",
"%	c #DFEFF8",
"&	c #A7DCEC",
"*	c #FFFFFF",
"=	c #A0CBDF",
"-	c #E0F1FB",
";	c #EFF3FC",
">	c #BFDFEE",
",	c #54BDD7",
"'	c #0E9EC3",
")	c #5FC0D8",
"!	c #0EADCB",
"~	c #0E97BF",
"{	c #0E94B9",
"]	c #0E8FB6",
"^	c #14A5C9",
"/	c #10698F",
"(	c #D3E5F0",
"_	c #8FCCE2",
":	c #40D1DB",
"<	c #46DBE6",
"[	c #1BBAD1",
"}	c #0FA0C4",
"|	c #48DFE9",
"1	c #1CA2C3",
"2	c #106589",
"3	c #03060C",
"4	c #18425F",
"5	c #64A3BD",
"6	c #2B91AE",
"7	c #2695B1",
"8	c #1F95B2",
"9	c #1299BB",
"0	c #15C1DA",
"a	c #060F19",
"b	c #0D324C",
"c	c #071620",
"d	c #06141D",
"e	c #06141F",
"f	c #05151E",
"g	c #0E5775",
"h	c #050B12",
"i	c #114560",
"j	c #144059",
"k	c #0B293E",
"l	c #010001",
"                ",
"      .         ",
"      +.        ",
"      +@.    #  ",
"      $%@.   #  ",
" ++++$$&*@.  #  ",
" +=-;->,'*@. #  ",
" +;)!~{]~^%/.#  ",
" $(_:<[~}|123#  ",
" 4567890|12a #  ",
" bcdefg|12h  #  ",
"      i12h   #  ",
"      j2a    #  ",
"      k3        ",
"      l         ",
"                "};
