/* XPM */
static const char *hgpixmap[] = {
"    16    13        5            1",
". c #FFFFFF",
"# c #000000",
"a c #000000",
"b c #f3f704",
"c c #f3f7f3",
".###############",
"..##############",
"...#############",
"....############",
".....###########",
".......#########",
"........########",
".........#######",
"..........######",
"............####",
".............###",
"..............##",
"...............#"
};
