/* XPM */
static const char *metal_xpm[] = {
/* width height num_colors chars_per_pixel */
"   154    77       36            1",
/* colors */
". c #909090",
"# c #969799",
"a c #969999",
"b c #999999",
"c c #9c9c9c",
"d c #a3a3a4",
"e c #a3a4a4",
"f c #a4a4a4",
"g c #a7a7a7",
"h c #a8aeb6",
"i c #a8b1b6",
"j c #aeaeae",
"k c #b1b6be",
"l c #b1babe",
"m c #b6b6b6",
"n c #bcbfc5",
"o c #bcc2c5",
"p c #bebebe",
"q c #c3c7cb",
"r c #c3c9cb",
"s c #c5c5c5",
"t c #cbcbcb",
"u c #cbced1",
"v c #cbcfd1",
"w c #d0d3d6",
"x c #d0d4d6",
"y c #d1d1d1",
"z c #d6d6d6",
"A c #d7d9db",
"B c #d7dadb",
"C c #dbdbdb",
"D c #dddedf",
"E c #dddfdf",
"F c #dfdfdf",
"G c #e1e2e3",
"H c #e1e3e3",
/* pixels */
"HGHHHHHHHHHHGHGHGHGGFGGFGFGEFEFEFEEEEDEDCDCDCBCBCBBABAzAzxzxzxxxwywyyvyvyvvtutttrtrtsrqsssssososonpppppplplpkmmmmmmmmimimhjjjjjjjjjgjejegeeeeeeededddcdaca",
"HHHGHGHGHGHGHHGHFHGHGHFEGGFGGEGEFEFEFEDEDDCDCDBCBCBCzBAzAzzzxzxzyxywyyyvyvyututttttrtstsqsssssospspnpppppplpmpmkmmmmmmmimjmjmjjjjjjjjjejejgefeededeedddddd",
"GGHGHGHGHGHGHFHGHGFGFGGHGGEGEFGFEFEFECEDCDCDBDBCBCBABAAzAzAxzxzyxwwywyyvytyvtututrtrtrqsqssssospspnppppplppmpmpmmmmmmmmjmmjmjjjjjjjjejjejjefeefeeecedeacda",
"HHFHGHGHGHFHGGGFGGHFGEGFEGFEGEEGEEEDFDDCDCDBDCBCBBCzAzAzxAxzxzwxyywyyvyvyvtuytttttrtstsqsqssossopspnppppplplpmmmkmmmimmmijmjjmjjjjjjjgejjefefeeeddedcedead",
"FGGGFGFGFGGFHGHGGFGEGFGFGEGEFEFEFDFEDDEDCDCDCBCBCABABAzAzzzxzxyzwwyywvyyvuytttuttrtstrsqssssssosnpspnpplppmpmpmpmmmmmimjmmjmjjjjjjjjejjejeejeedfeededdcdda",
"GFGGGGGGGGFGFGFGFGGGFEGEFFEGEFEEEEDEDCDCDBCBCBCBBBCzAzAxzxzxzwxyywyyvyvyuytuuttrttrtsqtssssosospspppppppplpmmmmmmmmmmmmjmjjmjmjjjjjjjejjejeefefeddedcdaecd",
"FGGFFGFFGFGGFGFGEFEGEGEGEEFEFEEFDFECDCDCDCDCBCBBCzAzAzzzAxzxxzwwwyywyyvytvtuttuttrtqtsssqsssospsppnppppplppmpmpmmmmmjmmimjmjjjjjjjjejjjejejejeeededededdda",
"GEGFGFGFGFGFEGFEGGEFGEFEGEEFEEFDDDDDCDCBDBCBCBCABAAzAzxzxzxzwywyywvyvyvvytutttrtrtrsqsqsssossosppsppppplppmpmmkmmmmmmmjmjmjjmjjjjjjjgejejefeeefdedddcdcadc",
"EGFEGEGEFEGEFGEGFEFEEFEFEFEEEDDDECDCDBCDCBCBCBABzAzAzzAxzxzxyxwywyyyvyuyutututtttstrtsqsssssospspnpppppppmpmmpmpmmmmmjmjmjmjjjjjjjjejjejejeefdeededeeaddda",
"FEGEFFEGEGEGEEFEEGEFEEFEEEFDDEDECDCDCDBCBCBBBACAAzAzxzxzxzxwzyywyyvyvyvttuttturtrtsqsssssososppnsppppplplpmkpmmmmmmimmmjmjjjmjjjjjgjjejejefeefedeedcdedadc",
"GEFEFEGEFEFEFEGEFEFEFEEDFDDEDCDCDDCDBCDBCBCBCBzBAzAzAzAxzxywywywvyyvyvutyuturttrtqrsqsqsssossnspppnpplpplpmpmmmmmmmmjmjmjjmjjjjjjjejejjejeejeeeeddeddddcda",
"EFEFEEFEFEFEFEFEEFEEDEFDEDEDCDDCDCBDCBCBBCBAAAAzzAxzxxxzxwzwywyyyvyvytytutttttrtrtstsssssssopspnpppppplpmpmmmkmmmmmmmimjmjjjjjjjjjjjjejejefeejddeddcdaeada",
"EEEEEFEEFEEFEEEFEEEDEDEDDCDCDDCDBDCBCBCBCABzBAzAzzAxzzxwzxwywyywvyyvyvtututtttrtqsqssqsssosospsppnpplppppmpmpmmmmmimjmjmjjmjmjjjjgjjejejeejeedeedecedddcda",
"DFEFEEFEEEFEEFDDDDFDDDDCDDCDCCDCCBCBCBBBABCAzzAzzxzzxxzxyyywyyyvyvyvutyttttrtrtstsqsqsssosospppnppppplpmlmmmmmmmmmmmmjmjmgjjjjjjjejgjejefeefdededdddaeadad",
"DEDDDDDDDDDDDDEDEDDDEDCDCCDCDCBDBCBCBBCACAAzAzAxzAxzxzyxwwwywvyyvyvuytutututtrtrstsqsssosssppsnppppppplpmpmpkmmmmmmjmjmjjjmjjjjjjjejejejeejeeefdededdcdcda",
"DDDEDEDEDEDEDEDCDCDCCDCDCBDBCBCBCBCBCAABzAzAzzAzzxzxzxwzyyywyyyvyvytututtrtrtrtsqsssssssoospsppppnplplpmpmmmmmmmmimmjmjmjjjjjjjgjjjejejefeedfdedddcdadadac",
"CDCDCDCDCDCDCDCDCDCDCDCDBCCCBDBCBBCBABAzAzAzzAxzxzxzwxwywywyyyvyvytuuttuttttstqstqsqsssosspspnpnppppppmpmpmpmmmmmmjmimjmjmjjjjjjjejjfjejeefeeedededceddcda",
"DCDCDCDCDCDCDCDCDCDBDBCBDBBCBCBCBCABACzAzAzAxzzxzxxwxzywyyyvyvyvvuvyttttrtrtrqtssssssossopsppppppplplpmpmmmmmmmmmmmjmjjmgjjjjjjgejejeefefeeedededddadacadc",
"DBCCDCDCDCDCDCCDBDBCCCBCBDCBCBCBBABzAzAzAzxzzxzxxzwzywyywywyvyvytytttututtrtstssqsqssssosspnpsnppppppmpmmpmmmmmmmimmjjmjjjjjjjjjjjjejejeeefefdedceddcdddaa",
"CCBDBCBCBCBBCBCBCCBDBBCBCBBBBBAACAAAzAzAzzAxzxzxzwxywywyyvyvyvyuutututrtrtrtqsqsqsssososppnsppppplplpmpmpmmmmmmimjmjmjmgmjjjjjgejejjejejejdededdddaeadadca",
"DBCBDBDCDBCDBDBDBCBCBCBCBCBCACBAzBzzAzAzxzxzxzxzwxywywyvwyyvyvtyututtttttrtsrstqssssssosnspppppppplppmpmmmmmmmmmmmjmjmjjjjjjjjjjjjejefefeedeedededcddcdada",
"CBCBCBCBCBCBCBCBCBCBCBBBABAAAzAzAzAzzzxAzxzxzxwxywywyyyyvyvyvyutvttuttrtrtstsqsssssosospopspnppppppmlmpmpmmmmmimimjmjjjmjjjjjjejjejejeeejdeededdcdadadacab",
"CBBCBCBBBCBBCBBCBBBBBCACAACBzAAzAzzAzAxzxzxzxxwyzywyywvyyvyvutyututtrttrtrtsqsqssssospspsppppppplplpmpmmmmmmmmmmmmjmjmjjjjjjjjjjjejjejejeedfeddeddeddadbda",
"BBCBBBBCBBBCBBCABCAABAAAzAzAzAzAzzzxxzxzxxzwxzywywyyyyyvyvyuytuttttutrtrrtsqtsssqsososppnpnpppplplpmpmmpmmmmmimjmjmjmgjjmjjjjgejejeefefdefedddedcadccdadab",
"AABAACBAACBABAABAAAAAzBzAzAzAzzzzAxAxzxzxzxwyywywyywvyvyvytvtuttutttrttstssssssssossspspspppppppppmpmpmmmmmmmmmmjmjmjjmjjjjjjejjjejjejeededeeddddeadadadaa",
"zBzAAzAAAAAAzABzABzzAzAzAzzAzxzxAxzxzxzxwxywwywyyywvyyvyvuytututttrttrrtsqqssqssossopopnppppplplpmpmmmmmmmmmimjmjmjjjmjjjjjjjjjegejeeefejdeddedcdddcadcaba",
"zAzAzAAzAzzAzAzAzzzAzAzAzAxzxzAzxzxzxzwwzyzyywyywyvyvyvtyvututturttrtrtqstsqsssossospspspnppppplplmpmpmkmmmmmmmmjmjmjjjjjjjgjejjejefejeedededcddeadadadada",
"AzAzAzzAzAzAzAzAzAzAzzzzxzzxAxxzxxzwwxywywywyyywvyyvyvyutttutttttrtrtsssqsssssssosopspppppppplppmpmmmmmmmmmimjmjmjmgjjjjjjjjejjejejefeefedeededcaedcadabab",
"zzAzzAzAzzAzAzAzzzzzAxAxzzxzxzzxxzyxxyzwywywywvyvyvyvvtytuuttuttrttstqtrssqssossospspspnpppplppmpmpmpmmmmmmmmmjmjmjjjmjjjjgjjjejejejeeedededdddddcdaddadaa",
"AxzzxzzzzAxzxzxAxAxzxzxzxxzxxxxzwwxzyywywyyyvyyyvyvvytuutttuttrttrrtssssqsssssososppnpppppppplplmpmmmmmmmmimjmjmjjmjjjjjjjejejjgejeefefededdecdadaddacabab",
"zzxAzxzxzxzzzxzzxzxzxzxzxzxzxzwwywyywywyyyvwyvyvyvytutyututttttrtqtrqstqssssossosppspnpnpplplppmpmmmkmmmmmmmmimjmjgmjjjjjjjjjejejeejeedefdedddceddadabadaa",
"zxzxzxzxzxzxzxzxzxzxzxxzxwxwwyyxzywywyyywyyvyyvvuytuytttttttrtrtrtsstssssqsssosospsppppppppplpmpmmpmmmmmmimjmjmjjmjjjjjjgjejejgefefedjdededdedadadcadadaba",
"xzxxxzxxzxxzxxzxxzxxxzwxwzwyzwywyywyyyyyvyvyvyvytvuttutututrttrtqstqssqssssosospsnppnppppplpmpmmpmmmmmmmmmmmjmjmjjjjjjjjjjjjjjejeejeedededecdceddaddababaa",
"wwwzwxzxxzxxzwwxzwwzywywywywyywyywyyyvwvyvyvvvytuytutttttrttrrtsrtssqssssososospppsppppppplplmpmmmmmmmmimijmjmjjmjjmjjjgjejegejejeefeeededdddadacdacadadab",
"yzxyzwwzwwzwwyzwyywyxwzywywyywyywyyvwvyvyvyvyutuutttuturttrtrtstssqssqsossospsppsppnpppplppmppmmpmmmmmmmmmmjmjmjjjjjjjjjjjjjejefeefeedfeddedcddddabdababaa",
"wywywywywywyxwywxywywyywyywyyyvwvyvyyvyvyuuttytuttutttttrtrtsqrsqsssssssosospospppppppppplplmpmmmmkmmmmimjmjmjjmjjjjjjgejejejejejeedfedddedcaeacadadadaaba",
"ywywywywywywyywyyywyywyywyywvwyyyvyvyvyvtyvyututtuttrtrtrtrtststsqsqssossospsppnpnppplplpmpmpmmmpmmmmimmjmjmjjmjjjjjjjjjjegjejefedjeedeedddddddaddadababaa",
"wyywyywyywyywywywyywyyvyyvyvyyvyvyvvvyutytttuttttttttrtrtqtsqssssssssossospnpsppppppppplplmpmmpmmmmmmmmjmmjmjmgjmgjjjjejjjejejeefedededddecaecddacadaabaaa",
"yvyyyyywyyywyyyyyyyyvyywvyyyvyvyvyvyutyutuuuttututtrttrtstqstsqsqsssossosopspppnpppppplppmpmpmmmmmmmmimmjmijmjjjjjjjjjjgjejejeejeefededecddddacadadabbaab#",
"ywvyvyyvyyvyyvyvyvwvyvyvyvvyvvyuuyttutututttttttrtrtrtrtsqsqsqsssssssoospsppnppppppplplpmpmmmmmmmmmmmmjmjmjjjjmjjjjjgejejjejefeeejdededdddaeddadcabaaabaaa",
"yvyvwyvyyvyvywvyyvyvyvyvyvyvyvtyvutyvututtutturttrtrtstrqstsssssssosososopnpsnpppppplppmlmmpmmmmmmmimimjmjmgmjjjjjjjjjjjjejejeefedededdecdddcaddadabdabab#",
"yvyvyvyvvyvyvyvyvyvyvyvvyututytuttuttttttttttttrtrtrstssssssqssssossosppsppppppppplpplmpmpmmmmmmmmmmmmjmjjmjjjjjjjjjejejejejefeeeedfddeddaeaddacabaaabaaaa",
"tyvyvvvyvyvyvvyvvyuyvuyttyuyutututtututttutrrtrtrtstrsqstsqsssssosspsppsppnppppplpplpmpmpmmmmmmmmimjmjmjmjgmjjjjjjjgjjjejejefeedfeededdcddcdcadadadadaaba#",
"vuvtvyuyuuyuytvtytvtuytuvtttuttutttttttrtrttrtrrtsqsqtsqssssssososospspppsppppppplplmpmmmmpmmmmmmmmimjmjjmjjjjjjjgjejejgejeeejejddedddedaeadadbadababab#aa",
"utytyuttyututuytuututttuttuttuttuttutttrttrrtrstqstqssssssssossospsnpnpnppppppplppmpmpmmpmmmmmmmmmjmjmjmjjjjjjjjjjjjjjejefefeeededededdcdddcddadabaaba#aa#",
"ututttuuttvtuttutuytutututtutttttttrtrttrrtrtstssqssqsqssssssosospospsppnpppplpplplmpmmpmmmmmmmimimmjjmjjmjjjjjjgejejejejejeefdeededddaeadabadabadad#aba#a",
"uttututttutttututtttuttttttttuttrtrtrtrtrtstsqsqssqsssssososospspsppppnpppplpplpmpmpmmmmmmmmmmmmjmmjmjjmjjjjjjjjjjjjegjejeefeeefdedeceddddadadadabaaba#ba#",
"ttutttuttttuttttuttttttutttrtrtrttrtrtrstsrsqtssqssssssssososospnpspppppppppplpplmpmmpmmmmmmmimmmjjmjmjgjjmgjjjgjejejejeefeeefdededdddacaddcadabaabaaaaa#a",
"rtttttttttttttttttturttrtrttrttrtrtrtstrqstsssqssssqsosossospsppsnpppnpppplplpmpmpmpmmmmmmmmmmimjmjmjjjmjjjjjjjjejjjjejefeefedededdddcddcdadababadaab#b#a#",
"ttrttttututttrurtrtrtrttrtrtrtrtrstsqssstsqsqssssqssssososospnsppppnppppppplplpmpmmmmmmmmmmimimmjmjjmjjjjjjjjgjejjegejefeejdededddecaeadadbadadaaba#aaa#a#",
"trttrrtrrtrrttrtttrtrtrtrtrtrtqstrsqstqqsqsssssssssosossosppsppnpnppppppplplpmpmmmpmmmmmmmmmjmmjmjjmjgmjjjjjjjjjejejefeejedeeedeedddddeacdadababaabab#b#a#",
"rtrrttrtrtrtrtrtrrtrtrtrrtsstsrtsstsqssssssqssssosososopsppspppppppppplplplmpmmpmmmmmmmmmimmmjjmjmjjjjjjjjjgjejjjejejejeeefeddedddcaebddadadadaadaaaaa#a##",
"strtrrrtrtrtrrtrqtstststsstqsqsssqsqsssqssssssosossospsnpsnppnpnppppppplppmpmpmmmmmmmmmmmmimjmmjjjmjmjjjjjjjjjejejejefeefedededdddeddadadadabababa#ba#a#a.",
"qsqtstsstststsstsrsqsqsqsqssqtsqsssssssssssosossosospospppppsppppppplplplmpmpmmpmmmmmmmimimmjmjmjjjjjjjjjgjejgjejejeeefedeededdedcaddcadcadadaaba#ba#ab###",
"stssqstsqsqsqstqststsrqsstsqsssssqssqsqsssosssososppspppspnppppppppplppmpmpmmmmmmmmmmmmmjmmjmjjjjmjjjjjjjjjjejegjefefeejedfededcddeadaddadabaabaaaa#a#a#a.",
"sqsqssqsqsqssqsssqssqtssqssssqssssssssosossoosospspsppspppppppppplplplpmpmmpmmpmmmmmmimmmjjmjmjmjgjmgjjjgjejjejeejeejeedededddddcaddcadacababaaad#ba#a####",
"sssssqsqssqsqssqssssssssssssssssssssosossoosspspspnppnpppnpppplplpplpmpmmpmmmmmmmmmmmmimjmmjmjjgmjjjjjjjjjjejjejjeefeeedfedededdddcdaddabadababa#aa#b#a#a.",
"ssqsqssssqsssqssqssqssssqsssssososossososospopppppsppppnppppppplplpmpmmpmmmmmmmmmmmimimmjmjjjmjjjjjjjjgjejgjejejejeeefeeddedddcaeadadacadaabaaab#a#a#a#.##",
"qssssssssssssssssssssssssssososssosoosospspspspsnppnppppppplplpplpmpmpmmpmmpmmmmmimmmjmjmjjmjjgmjjjjjjjjjejejejeeeejeedededdeddddeacdadababaada#aba#a##a#.",
"sssssssssssssssssssososoosossosoospssppsppppppnppppppnppplpplplpmpmmmmmmmmmmmmmmmmimjmjmjmjjmgjjjjjgjgejjjejejefefededededddcdaecaddadabababa#aba##a##.##.",
"soosososososososososssossosososospsppsppnpsnpspppnppppplppplplpmpmpmpmpmmmmmmmmimmjmmjmjjjmjjjjjjjjjjjjejegjefeefeefedfeddedddcdaddadadadaaaab#a#a#a#a#a#.",
"ossososososososososoosososospspspnpnspnspppppppppppppppplplpmpmmpmmmmmmmmmmmmmmmimmjjmjmjjjjjjjjjjgjejjjejeejejeeefdededdddcaeadcacadabaabad#aab#ab##.#.##",
"osososososososososospspsppspppppspspppppppnpnppppppplplppmpmpmmpmmpmmmmmmmmmimimmjmjmjmjgmjjmjjjjjjjjgjejejjefeejdeededededdddddadadababadaa#ba#a##.a#a.#.",
"pspspspspspspspspspspospnspnsnsppppnppnpppppppppplplpplplpmmpmpmmmmmmmmmmmmmmimjmjmjjmgjmjjjjjjjgjejejejejeeeefedeededdddcaeacadcadabaabaab#aa#a#a#a#.##.#",
"sppppsppsppsppspnpppsppspppppppppnppnpppppppppplpplpplpmpmmpmmmmmmmmmmmmmmmimjmmjmjjmjjjjjjjjjjjjjgjjejegejejeefedfedededddcdddadabadadaba#ab##ba###a#.##.",
"ppsppppsppsppsppspsppnppnpspppnpnppppppppppplplpplplmpmmmpmmpmmmmmmmmmmmimimmmjjmjmjjjmjjjjjgjjgejejejjejefeefeeededddddcaeadadcadadabaaaabaa#a###a.#.##.#",
"pnppspnppnppnppnppppnpppppppnpppppppppppppplplpplpmpmpmpmmpmmmmmkmmmmmimmmmmjjmjmjjjmjjjjjjjjjjjjjegjejefeefeededededecdddddacdadababaad#b#a#ba#a.##.##.#.",
"pppnpppnpppnppnppnppppnppnpppppppppppplpllpplpmmpmpmpmmmpmmmmmmmmmmmmmmimjmjmmjjjmjjgjjjjjjjgjejejjejefeejeeejdefddddddaeadcdadadadaaba#aab#a#####a.##.#.#",
"pppppppppppppppppppnppppppppppppppppplplpplmpmppmmpmmmpmmmmmmmmmmmmmmimmjmjmjjjmjgmjjjjjjjjjejjejjejejeefeefededddededcddeadadadabaababab#aa#aa.a#.##.#.#.",
"ppppppppppppppppppppppppppplpplplpllpplplppmpmmmpmmmpmmmmmmmmmmmmmimimmjmjmjmjmjjjjjjjjjjgjjjjejgejejejeeefdedededdddaeadadcadabadabaaaaaa#a#a###.#.##.#.#",
"lpppppppppppppppppppppppplpplplpplpplmpmpmmpmmpmmmpmmmmmmmmmmmmmmmmjmmjmjmjjjjgmjjmjjjjjjjjgjejjejejefeefeeedededdedcddddcdadadabaaba#b#ba#ba#a#a#.##.#.#.",
"pplplplplplplplplplpllplpplppplpmpmpmpmpmpmmmpmmmmmmmmmmmmmmmmmimimmjjmjmjjmjmgjjjjjjjjgjgejejgejefeeefeededededdddaeadacadacabaabaaabaa##a###.#.##.#.#.#.",
"plpplpplpplpplpplpplpplpllplmpmpmpmmpmpmmmmpmmmmpmmmmmmmmmmmmimmjmijmjmjjmjmjjjjjjjjjjjjejjejjejejeefeefeedededdecdcddcdadadadadab#daa#a#b#a#a#a##.##.#.#.",
"lplplplplplplplplplplpmpmpmpmlpmmpmpmmmmpmmmmkmmmmmmmmmmmmmimmimijmmjmjjjjgjjjjjjjgjjgjjjejjejefeefeeeedefdedddddaeadadadbababaabaaab#a#a#a##.#.#.#.#.#.#.",
"pmpmpmpmpmpmpmpmpmpmmmpmpmpmpmmpkmmmmpkmmmmmmmmmmmmmmmmmimimmjmjmjmjjjjmjmjjmjjjjjjjjjejejjejejeefefejeeddedededddddcdcdadadadabaaba#a#b#a#a#a###.##.#.#..",
"mpmmpmmpmmpmmpmmpmpmpmmpmmmmmpmmmpmmmmmmpmmmmmmmmmmmmmimmimjmimjmjjjmjjjgjjjgjjjjjgjejjjejejejefejeeededeedddddcaeadadabadabaabaaba#ba#a###.#.#.##..#.#.#.",
"mmpmmpmmmpmmpmmpmmmmmpmmmpmpmmmmmmmkmmmmmmmmmmmmmimmimmmjmmjmjmjjjjmgmjjmjjjjjjjjjejjejejegefejeeedfeedfddededeadcdcdadadadabaaba#aaa#a#a#a#a#.#.#.#.#.#.."
};
