/* XPM */
static const char *onset[] = {
/* width height num_colors chars_per_pixel */
"   9    54       14            1",
/* colors */
". c #000000",
"# c #00373c",
"a c #008000",
"b c #008080",
"c c #00ff00",
"d c #222222",
"e c #333366",
"f c #429aa7",
"g c #6666cc",
"h c #6f6f6f",
"i c #808080",
"j c #c0c0c0",
"k c #e7e7e7",
"l c #ffffff",
/* pixels */
"kkkkkkkkk",
"kjjjjjjjh",
"kjjjjjjjh",
"keeeeeijh",
"kjeggljjh",
"kjjeljjjh",
"kjjjjjjjh",
"kjjjjjjjh",
"kjjjljjjh",
"kljjjejjh",
"kjejjjjjh",
"kjjjljjjh",
"kljjjejjh",
"kjejjjjjh",
"kjjjljjjh",
"kljjjejjh",
"kjejjjjjh",
"kjjjljjjh",
"kljjjejjh",
"kjejjjjjh",
"kjjjljjjh",
"kljjjejjh",
"kjejjjjjh",
"kjjjljjjh",
"kljjjejjh",
"kjejjjjjh",
"kjjjljjjh",
"kljjjejjh",
"kjejjjjjh",
"kjjjljjjh",
"kljjjejjh",
"kjejjjjjh",
"kjjjljjjh",
"kljjjejjh",
"kjejjjjjh",
"kjjjljjjh",
"kljjjejjh",
"kjejjjjjh",
"kjjjljjjh",
"kljjjejjh",
"kjejjjjjh",
"kjjjljjjh",
"kljjjejjh",
"kjejjjjjh",
"kjjjljjjh",
"kljjjejjh",
"kjejjjjjh",
"kjjjljjjh",
"kljjjejjh",
"kjejjjjjh",
"kjjjljjjh",
"kjjjjjjjh",
"kjjjjjjjh",
"khhhhhhhh"
};
