/* XPM */
static const char *powerspec[] = {
"    18    15        5            1",
". c #FF0000",
"# c #FFFFFF",
"a c #000000",
"b c #f3f704",
"c c #f3f7f3",
"##################",
"#a.###############",
"#a.###############",
"#a.###############",
"#a#.##############",
"#a#.##############",
"#a#.##.###########",
"#a#.##.###########",
"#a#.##.###########",
"#a#.##.#.#########",
"#a#.##.#.#########",
"#a##.#.#.##.######",
"#a##..#.#..#.....#",
"#aaaaaaaaaaaaaaaa#",
"##################"
};
