/* XPM */
static const char * rastermap[] = {
"16 13 2 1",
" 	c None",
".	c #000000",
"................",
".   .   .   .   ",
".   .   .   .   ",
".   .   .   .   ",
"................",
".   .   .   .   ",
".   .   .   .   ",
".   .   .   .   ",
"................",
".   .   .   .   ",
".   .   .   .   ",
".   .   .   .   ",
"................"};
