/* XPM */
static const char * rawdat[] = {
"16 13 4 1",
" 	c None",
".	c #000000",
"+	c #A0CBDF",
"@	c #337F9E",
".    +          ",
".    ++         ",
".    @+    +    ",
".+   @+    @+   ",
".+   @+    @+  @",
".@  @@@+  @@@+ @",
".@+ @ @+  @ @+@ ",
".@+@  @@+@@ @@@ ",
".@@@   @+@   @  ",
". @    @@@   @  ",
". @     @       ",
".       @       ",
"................"};
