/* XPM */
static const char * setcoord[] = {
"16 16 7 1",
" 	c None",
".	c #000000",
"+	c #C0C0C0",
"@	c #FFFFFF",
"#	c #FFDCA8",
"$	c #808080",
"%	c #FFA858",
"         ..     ",
"         .+..   ",
"    ...  .@++.. ",
"   .##.  .@+@++.",
"  .##.....+$+++.",
"..######%#.@+$+.",
".####......++@+.",
".####%%. .@+$++.",
".######. .@+@++.",
"..%%%%.  .+$+++.",
"  .....  .@@+$+.",
"         .$++@+.",
"         ..+$++.",
"           ..++.",
"             ...",
"               ."};
