/* XPM */
static const char *stderrxpm[] = {
"    18    15        5            1",
". c #888888",
"# c #FFFFFF",
"a c #000000",
"b c #ff0000",
"c c #f3f7f3",
"##################",
"#a#########bbb####",
"#a#####bbbb###b###",
"#a###bb########b##",
"#abbb######...##b#",
"#a#####....###.###",
"#a###..########.##",
"#a...######bbb##.#",
"#a#####bbbb###b###",
"#a###bb########b##",
"#abbb###########b#",
"#a################",
"#a################",
"#aaaaaaaaaaaaaaaa#",
"##################"
};
