/* XPM */
static const char * vlview_xpm[] = {
"20 20 6 1",
" 	c #ffffff",
".	c None",
"+	c #000000",
"a	c #0000FF",
"#	c #FFFF00",
"$	c #00FF00",
"  ......  ..........",
" aa .... aa.........",
".+aa ... aa+........",
"..+aa .. aa+........",
"...+aa . aa+........",
"....+aa  aa+........",
".....+aa aa+........",
"......+aaaa+........",
".......+aaa+      ..",
"........+aaaaaaaaaa.",
".........+aaaaaaaaa+",
"...........+++++++++",
"....................",
"+...+.+.++++.+.....+",
"+...+.+.+....+.....+",
"+...+.+.+....+.....+",
".+.+..+.+++..+.....+",
".+.+..+.+....+..+..+",
"..+...+.+....+.+.+.+",
"..+...+.++++..+...+."};
