/* XPM */
static const char * connected_xpm[] = {
"20 27 9 1",
" 	c None",
".	c #000000",
"+	c #FFFFFF",
"@	c #A0A0A0",
"#	c #DCDCDC",
"$	c #303030",
"%	c #C3C3C3",
"&	c #808080",
"*	c #585858",
"                    ",
"                    ",
"                    ",
"                    ",
"                    ",
"               .+@  ",
"        ...   .+@.  ",
"       .+++. .+@.   ",
"      .+###+.+@.    ",
"     ...@###+$.     ",
"    .+%..@###+$     ",
"   .+##%.$@###+.    ",
"  .&%###%..@##%.    ",
"  .*&%###%.$@%&.    ",
"  .**&%###%..&*.    ",
"   .*%&%##%@.*.     ",
"    .+@&%#@&..      ",
"   .+@&*&@&*.       ",
"  .+@..*&&*.        ",
"  +@.  .**.         ",
"  @.    ..          ",
"                    ",
"                    ",
"                    ",
"                    ",
"                    ",
"                    "};
