/* XPM */
static const char * lip[] = {
"110 31 347 2",
"  	c None",
". 	c #F3F3F3",
"+ 	c #FFFFFF",
"@ 	c #F6F6F6",
"# 	c #EAEAEA",
"$ 	c #CBCBCB",
"% 	c #3F7F7F",
"& 	c #BFFF7F",
"* 	c #F7F7F7",
"= 	c #007F00",
"- 	c #7FBF7F",
"; 	c #C7C7C7",
"> 	c #ECECEC",
", 	c #FAFAFA",
"' 	c #BFBF7F",
") 	c #B6B6B6",
"! 	c #EBEBEB",
"~ 	c #F9F9F9",
"{ 	c #B5B5B5",
"] 	c #E9E9E9",
"^ 	c #3F7F00",
"/ 	c #B4B4B4",
"( 	c #E8E8E8",
"_ 	c #B3B3B3",
": 	c #E7E7E7",
"< 	c #F5F5F5",
"[ 	c #F8F8F8",
"} 	c #B7BAB6",
"| 	c #EFF0EE",
"1 	c #F1FDEF",
"2 	c #D4DFD2",
"3 	c #9B9E9B",
"4 	c #3FBF00",
"5 	c #007F7F",
"6 	c #003F00",
"7 	c #B2B2B2",
"8 	c #E6E6E6",
"9 	c #F4F4F4",
"0 	c #F1F2F1",
"a 	c #F4F9F3",
"b 	c #EAF0EA",
"c 	c #CACCCA",
"d 	c #E5E6E5",
"e 	c #979C96",
"f 	c #242624",
"g 	c #575757",
"h 	c #CCCCCB",
"i 	c #606560",
"j 	c #181918",
"k 	c #555555",
"l 	c #003F7F",
"m 	c #B1B1B1",
"n 	c #FEFEFE",
"o 	c #DCDDDC",
"p 	c #D2DDD0",
"q 	c #B4BDB3",
"r 	c #686868",
"s 	c #0A0B0A",
"t 	c #0A0A0A",
"u 	c #575857",
"v 	c #ADADAD",
"w 	c #060606",
"x 	c #7F7F7F",
"y 	c #7FBF00",
"z 	c #E4E4E4",
"A 	c #FCFCFC",
"B 	c #F1F1F1",
"C 	c #D3D4D2",
"D 	c #B1BAB0",
"E 	c #868C85",
"F 	c #565655",
"G 	c #3F3F00",
"H 	c #AFAFAF",
"I 	c #E3E3E3",
"J 	c #FBFBFB",
"K 	c #F0F0F0",
"L 	c #CFCFCE",
"M 	c #9AA199",
"N 	c #5E635E",
"O 	c #D9DAD9",
"P 	c #EEEFEE",
"Q 	c #F3F9F2",
"R 	c #EBF0E9",
"S 	c #E3E9E3",
"T 	c #E2E7E1",
"U 	c #E5EBE4",
"V 	c #E9EFE8",
"W 	c #EAEFE9",
"X 	c #E3E8E2",
"Y 	c #C1C3C1",
"Z 	c #EDF2EB",
"` 	c #E5EAE3",
" .	c #E6EBE5",
"..	c #DCE1DB",
"+.	c #C0C1BF",
"@.	c #ECEDEC",
"#.	c #F1F6EF",
"$.	c #F0F5EF",
"%.	c #EDF3EC",
"&.	c #E8EDE7",
"*.	c #DBDFD9",
"=.	c #BDBFBD",
"-.	c #ECF1EB",
";.	c #ABADA9",
">.	c #E2E2E2",
",.	c #EFEFEF",
"'.	c #CDCECD",
").	c #969D95",
"!.	c #575B56",
"~.	c #555554",
"{.	c #C6C7C6",
"].	c #0C0D0C",
"^.	c #0C0C0C",
"/.	c #8D918C",
"(.	c #D4DBD3",
"_.	c #646564",
":.	c #D9DAD8",
"<.	c #C9D3C7",
"[.	c #C0CABF",
"}.	c #101010",
"|.	c #1A1B1A",
"1.	c #8E958D",
"2.	c #989B98",
"3.	c #DBE6D9",
"4.	c #252725",
"5.	c #545454",
"6.	c #505450",
"7.	c #ACB5AB",
"8.	c #868D85",
"9.	c #5E5E5E",
"0.	c #212220",
"a.	c #8B928A",
"b.	c #DEE9DC",
"c.	c #1E1F1E",
"d.	c #AEAEAE",
"e.	c #E1E1E1",
"f.	c #EEEEEE",
"g.	c #CDCDCC",
"h.	c #949B93",
"i.	c #545854",
"j.	c #545554",
"k.	c #C3C3C3",
"l.	c #C3C9C2",
"m.	c #8C908B",
"n.	c #555655",
"o.	c #D1D1D0",
"p.	c #A2AAA0",
"q.	c #757B74",
"r.	c #535353",
"s.	c #6B706A",
"t.	c #323431",
"u.	c #EBEDEB",
"v.	c #E0ECDF",
"w.	c #777D76",
"x.	c #5A5E59",
"y.	c #DFEBDE",
"z.	c #DFEADD",
"A.	c #ADB6AC",
"B.	c #E0E0E0",
"C.	c #EDEDED",
"D.	c #CCCDCC",
"E.	c #939A91",
"F.	c #525752",
"G.	c #E6E7E6",
"H.	c #D9E0D8",
"I.	c #70746F",
"J.	c #515550",
"K.	c #899088",
"L.	c #8C938B",
"M.	c #CECFCD",
"N.	c #929990",
"O.	c #767C75",
"P.	c #CACAC9",
"Q.	c #888F87",
"R.	c #4A4D49",
"S.	c #D2D3D1",
"T.	c #AAB3A9",
"U.	c #7D837C",
"V.	c #7C827B",
"W.	c #90978F",
"X.	c #BFBFFF",
"Y.	c #ACACAC",
"Z.	c #DFDFDF",
"`.	c #CBCCCB",
" +	c #515551",
".+	c #DEE6DE",
"++	c #787C77",
"@+	c #525651",
"#+	c #828981",
"$+	c #A9A9A9",
"%+	c #121211",
"&+	c #676767",
"*+	c #919890",
"=+	c #CDCECC",
"-+	c #98A097",
";+	c #5C605B",
">+	c #7F857E",
",+	c #3F3F7F",
"'+	c #DDDDDD",
")+	c #CACBCA",
"!+	c #4F524E",
"~+	c #E2E3E2",
"{+	c #D6DED5",
"]+	c #767A75",
"^+	c #525252",
"/+	c #0F0F0F",
"(+	c #6F746E",
"_+	c #E5F1E3",
":+	c #E9F5E7",
"<+	c #C7D1C5",
"[+	c #535752",
"}+	c #828880",
"|+	c #979F96",
"1+	c #FFFF7F",
"2+	c #AAAAAA",
"3+	c #DCDCDC",
"4+	c #C9CAC9",
"5+	c #949B92",
"6+	c #DFE0DF",
"7+	c #CED6CD",
"8+	c #767B76",
"9+	c #565A55",
"0+	c #707670",
"a+	c #9F9F9F",
"b+	c #9D9D9D",
"c+	c #9FA19F",
"d+	c #BFC9BE",
"e+	c #BABEB9",
"f+	c #B9BAB9",
"g+	c #585C57",
"h+	c #C9C9C8",
"i+	c #8D948C",
"j+	c #858C84",
"k+	c #A0A89F",
"l+	c #DBDBDB",
"m+	c #F2F2F2",
"n+	c #959D94",
"o+	c #626761",
"p+	c #515151",
"q+	c #D2DAD1",
"r+	c #868C86",
"s+	c #949C93",
"t+	c #676C66",
"u+	c #80867F",
"v+	c #555954",
"w+	c #BCBCBB",
"x+	c #5D625D",
"y+	c #CBCCCA",
"z+	c #9EA69D",
"A+	c #696E68",
"B+	c #C6C6C5",
"C+	c #595D58",
"D+	c #B3BCB1",
"E+	c #A4ACA2",
"F+	c #DADADA",
"G+	c #C7C8C7",
"H+	c #747A73",
"I+	c #747574",
"J+	c #F0F9EE",
"K+	c #969C94",
"L+	c #797A79",
"M+	c #777877",
"N+	c #B6BFB4",
"O+	c #E1E2E0",
"P+	c #7B817A",
"Q+	c #737473",
"R+	c #B8B9B8",
"S+	c #747674",
"T+	c #D3DED1",
"U+	c #A7B0A6",
"V+	c #A8A8A8",
"W+	c #D9D9D9",
"X+	c #C0C1C0",
"Y+	c #5B5F5A",
"Z+	c #2F312F",
"`+	c #575A57",
" @	c #ADB1AD",
".@	c #EBF1EB",
"+@	c #EFF3ED",
"@@	c #EDF1EC",
"#@	c #C5C6C5",
"$@	c #F2F8F0",
"%@	c #979D96",
"&@	c #343634",
"*@	c #575956",
"=@	c #A4A7A4",
"-@	c #D5D9D3",
";@	c #BABBB9",
">@	c #C8C8C7",
",@	c #6D716D",
"'@	c #ACAFAB",
")@	c #DFE5DF",
"!@	c #E7ECE5",
"~@	c #A6AEA4",
"{@	c #383838",
"]@	c #9B9B9B",
"^@	c #E4E5E4",
"/@	c #E9EEE7",
"(@	c #D0D7CF",
"_@	c #EBF1EA",
":@	c #D2D9D1",
"<@	c #818780",
"[@	c #2E302E",
"}@	c #525552",
"|@	c #A2A5A1",
"1@	c #D0D0D0",
"2@	c #A1A1A1",
"3@	c #1B1C1B",
"4@	c #616561",
"5@	c #AAADA9",
"6@	c #AEB0AE",
"7@	c #1F201F",
"8@	c #A7A7A7",
"9@	c #D7D7D7",
"0@	c #060706",
"a@	c #070707",
"b@	c #070706",
"c@	c #505050",
"d@	c #616660",
"e@	c #A6A6A6",
"f@	c #D6D6D6",
"g@	c #434642",
"h@	c #A5A5A5",
"i@	c #C4C5C4",
"j@	c #4F4F4F",
"k@	c #A4A4A4",
"l@	c #D5D5D5",
"m@	c #C2C3C2",
"n@	c #7E847D",
"o@	c #373A37",
"p@	c #D3D3D3",
"q@	c #FDFDFD",
"r@	c #BDBDBC",
"s@	c #656A64",
"t@	c #4E4E4E",
"u@	c #A2A2A2",
"v@	c #D2D2D2",
"w@	c #DEDEDE",
"x@	c #7E7E7E",
"y@	c #D1D1D1",
"z@	c #A0A0A0",
"A@	c #CFCFCF",
"B@	c #E5E5E5",
"C@	c #C5C5C5",
"D@	c #989898",
"E@	c #8B8B8B",
"F@	c #838383",
". + @ # # # # # # # # # # # # # # # # # # # # # # # # # # # # # # # # # # # # # # # # # # # # # # # # # # # # # # # # # # # # # # # # # # # # # # # # # # # # # # # # # # # # # # # # # # # # # # # # # # # # # # # # # # $ ",
"+ + + + + + + + + + + + + + + + + + + + + + + + + + + + + + + + + + + + + + + + + + + + + + + + + + + + + + + + + + + + + + + + + + + + + + + + + + + + + + + + + + + + + + + + + + + + + + + % & + + + + + + + + + + + + + ",
"* + + + + + + + + + + + + + + + + + + + + + + + + + + + + + + + + + + + + + + + + + + + + + + + + + + + + + + + + + + + + + + + + + + + + + + + + + + + + + + + + + + + + + + + + + + + + + = - + + + + + + + + + + + + + ; ",
"> + + , , , , , , , , , , , , , , , , , , , , , , , , , , , , , , , , , , , , , , , , , , , , , , , , , , , , , , , , , , , , , , , , , , , , , , , , , , , , , , , , , , , , , , , , , , ' - , , , , , , , , , , , , , , ) ",
"! + + ~ ~ ~ ~ ~ ~ ~ ~ ~ ~ ~ ~ ~ ~ ~ ~ ~ ~ ~ ~ ~ ~ ~ ~ ~ ~ ~ ~ ~ ~ ~ ~ ~ ~ ~ ~ ~ ~ ~ ~ ~ ~ ~ ~ ~ ~ ~ ~ ~ ~ ~ ~ ~ ~ ~ ~ ~ ~ ~ ~ ~ ~ ~ ~ ~ ~ ~ ~ ~ ~ ~ ~ ~ ~ ~ ~ ~ ~ ~ ~ ~ ~ ~ ~ ~ ~ ~ ~ ~ ~ - ~ ~ ~ ~ ~ ~ ~ ~ ~ ~ ~ ~ ~ ~ ~ { ",
"] + + * * * * * * * * * * * * * * * * * * * * * * * * * * * * * * * * * * * * * * * * * * * * * * * * * * * * * * * * * * * * * * * * * * * * * * * * * * * * * * * * * * * * * * * * * * ^ * * * * * * * * * * * * * * * / ",
"( + + @ @ @ @ @ @ @ @ @ @ @ @ @ @ @ @ @ @ @ @ @ @ @ @ @ @ @ @ @ @ @ @ @ @ @ @ @ @ @ @ @ @ @ @ @ @ @ @ @ @ @ @ @ @ @ @ @ @ @ @ @ @ @ @ @ @ @ @ @ @ @ @ @ @ @ @ @ @ @ @ @ @ @ @ @ @ @ @ @ - ^ @ ' % - - @ @ @ @ @ @ @ @ @ @ _ ",
": + + < < < < < < < < < < < < < < < < < < [ + + } < < < < < < < < < < < < < < < < < < < < < < < < < < < < < < < < | 1 2 3 < < < < < < < < < < < < < < < < < < < < < < < < < < < < < < < 4 ' ^ 5 6 = 6 = = < < < < < < < < 7 ",
"8 + + 9 9 9 0 a b c 9 9 9 9 9 9 9 9 9 9 9 d e f g 9 9 9 9 9 9 9 9 9 9 9 9 9 9 9 9 9 9 9 9 9 9 9 9 9 9 9 9 9 9 9 9 h i j k 9 9 9 9 9 9 9 9 9 9 9 9 9 9 9 9 9 9 9 9 9 9 9 9 ' % ^ % & 9 9 ^ - 6 ^ = ^ 5 ^ l = ' 9 9 9 9 9 9 m ",
"8 + n . . . o p q r . . . . . . . . . . . { s t u . . . . . . . . . . . . . . . . . . . . . . . . . . . . . . . . v w w k . . . . . . . . . . . . . . . . . . . . . . . - = 6 = 5 6 - - x = = % = ^ 6 ^ = = l y . . . . . m ",
"z + A B B B C D E F B B B B B B B B B B B B B B B B B B B B B B B B B B B B B B B B B B B B B B B B B B B B B B B B B B B B B B B B B B B B B B B B B B B B B B B B B ' 5 = % = ^ = l y % = ^ = G 5 = = % ^ = l B B B B B H ",
"I + J K K K L M N k K K K K K K K K . , , , , , O K K K K K P Q R S T U V W X Y K K K K Z V S `  .T ..+.K K @.#.$.%.&.*.=.K K K K K K K Z V S U W %.-.V ;.K K K K K K = 6 ^ = 6 5 ^ = ^ ^ ^ 5 ^ = = G 5 ^ 6 ^ = ^ K K K K H ",
">.+ , ,.,.,.'.).!.~.,.,.,.,.,.,.,.,.{.].^./.+ (._.,.,.,.,.,.:.<.[.}.w w w |.1.2.,.,.,.,.3.4.w w w w w 5.,.,./ w w 6.7.8.9.,.,.,.,.,.,.,.3.4.w w w 0.a.b.c.,.,.,.,.,.' 5 = 5 ^ ^ = ^ 6 % ^ = ^ 6 % ^ = ^ = 5 ^ = 5 ,.,.,.,.d.",
"e.+ ~ f.f.f.g.h.i.j.f.f.f.f.f.f.f.f.f.f.f.k.l.m.n.f.f.f.f.f.o.p.q.r.f.f.f.f.s.1.t.f.u.v.b.r.f.f.f.f.f.f.f.f.f.f.f./ w.x.r.f.f.f.f.f.u.y.z.r.f.f.f.f.x.A.w f.f.f.f.f.% = ^ 6 = % 6 = ^ = 6 % = = 6 5 ^ 6 ^ 6 = % 6 - f.f.f.v ",
"B.+ [ C.C.C.D.E.F.5.C.C.C.C.C.C.C.C.C.C.C.G.H.I.k C.C.C.C.C.'.E.J.r.C.C.C.C.K.L.w C.M.N.O.r.C.C.C.C.C.C.C.C.C.C.C.P.Q.R.r.C.C.C.C.C.S.T.U.r.C.C.C.C.V.W.w C.C.C.C.C.^ = 5 ^ = 6 ^ 5 ^ 5 = ^ = l ^ = ^ 5 = % ^ ^ = X.C.C.C.Y.",
"Z.+ * > > > `.E. +r.> > > > > > > > > > > : .+++k > > > > > D.E.@+r.> > > > #+V.w > $+}.%+&+> > > > > > > > > > > `.*+J.r.> > > > > =+-+;+r.> > > > >+N.w > > > > ' 5 6 ^ = % = ^ = G = = ,+^ = = G = ^ ^ 6 = % 6 - > > > Y.",
"'++ < # # # )+E.!+r.# # # # # # # # # # # ~+{+]+5.# # # # # )+N.@+^+# # # # #+w.w # # # w /+(+_+:+<+# # # # # # # )+N.[+^+# # # # # )+N.[+^+# # # # }+|+w # # # # - = ^ 5 G = ^ l ^ 5 ^ = ^ = ^ % = 5 6 5 ^ ^ = l 1+# # # 2+",
"3++ . ] ] ] 4+5+[+^+] ] ] ] ] ] ] ] ] ] ] 6+7+8+r.] ] ] ] ] 4+N.9+^+] ] ] ] }+0+w ] ] ] a+b+b+b+c+d+e+f+] ] ] ] ] )+5+g+^+] ] ] ] ] h+i+@+^+] ] ] ] j+k+w ] ] ] ] ' 5 = ^ = = ^ = ^ = G 5 ^ % = 6 ^ ^ = ^ ^ 5 = 6 ] ] ] ] 2+",
"l++ m+( ( ( h+n+o+p+( ( ( ( ( ( ( ( ( ( ( o q+r+r.( ( ( ( ( 4+s+t+p+( ( ( ( u+v+w ( ( ( ( ( ( ( w+i+x+r.( ( ( ( ( y+z+A+p+( ( ( ( ( B+u+C+p+( ( ( ( D+E+w ( ( ( ( ' 6 ^ 5 G 5 ^ l ^ % = ^ = = ^ 5 = G 5 = 6 ^ ^ 5 ( ( ( ( $+",
"F++ B : : : G+i+H+I+: : : : : : : : : : : ,.J+K+L+: : : : : h+-+L.M+: : : : N+%+w : : : : : : : O+P+w p+: : : : : O+[.V.Q+: : : : : R+R.@+S+: : u.T+U+u+w : : : : : = 5 ^ = ^ = ^ = ^ = % 6 ^ ^ 6 ^ = ^ ^ 5 = 6 = : : : : V+",
"W++ K 8 8 8 X+Y+Z+`+ @T .@+@@@#@8 8 ! * * $@%@&@*@=@-@;@8 8 >@n+N.,@'@)@ .!@~@{@]@8 ^@-./@U  .Z (@w ]@{ 8 8 ^@Z _@:@<@[@}@|@-@;@8 8 1@2@3@4@5@U 6@Y.7@%+w 8 8 8 8 8 6 = G = % 6 ^ 5 ^ 6 ^ = 5 ^ % = % = 6 ^ = l ' 8 8 8 8 8@",
"9@+ f.z z z 2@w w w w w w 0@a@p+z z H a@a@a@a@b@0@w w c@z z {.L.d@w w w w w w c@z z Y.w w w w w w w z z z z Y.w w w w w w w w c@z z z z w w w w c@z w w w z z z z z = 5 ^ = = ^ = ^ = % ^ = ^ = ^ = ^ = % ^ l ' z z z z z e@",
"f@+ C.I I I I I I I I I I I I I I I I I I I I I I I I I I I #@8.g@c@I I I I I I I I I I I I I I I I I I I I I I I I I I I I I I I I I I I I I I I I I I I I I I I I ' 5 ^ 6 % = ,+= ^ = = % 6 % = G 5 ^ = 6 = I I I I I I h@",
"f@+ > >.>.>.>.>.>.>.>.>.>.>.>.>.>.>.>.>.>.>.>.>.>.>.>.>.>.>.i@Q.g@j@>.>.>.>.>.>.>.>.>.>.>.>.>.>.>.>.>.>.>.>.>.>.>.>.>.>.>.>.>.>.>.>.>.>.>.>.>.>.>.>.>.>.>.>.>.>.>.>.>.^ l ^ = ^ = ^ l ^ ^ = ^ = ^ 5 ^ 6 5 ^ >.>.>.>.>.>.>.k@",
"l@+ ! e.e.e.e.e.e.e.e.e.e.e.e.e.e.e.e.e.e.e.e.e.e.e.e.e.e.e.m@n@o@j@e.e.e.e.e.e.e.e.e.e.e.e.e.e.e.e.e.e.e.e.e.e.e.e.e.e.e.e.e.e.e.e.e.e.e.e.e.e.e.e.e.e.e.e.e.e.e.e.e.e.^ 5 = ^ 5 ^ = = % = % ^ = G = ^ l e.e.e.e.e.e.e.e.k@",
"p@q@] Z.Z.Z.Z.Z.Z.Z.Z.Z.Z.Z.Z.Z.Z.Z.Z.Z.Z.Z.Z.Z.Z.Z.Z.Z.Z.Z.r@s@|.t@Z.Z.Z.Z.Z.Z.Z.Z.Z.Z.Z.Z.Z.Z.Z.Z.Z.Z.Z.Z.Z.Z.Z.Z.Z.Z.Z.Z.Z.Z.Z.Z.Z.Z.Z.Z.Z.Z.Z.Z.Z.Z.Z.Z.Z.Z.Z.Z.Z.Z.Z.- 6 = 6 ^ 5 ^ 6 ^ = 6 % = % = ' Z.Z.Z.Z.Z.Z.Z.Z.u@",
"v@A ( w@w@w@w@w@w@w@w@w@w@w@w@w@w@w@w@w@w@w@w@w@w@w@w@w@w@w@{ t@t@x@w@w@w@w@w@w@w@w@w@w@w@w@w@w@w@w@w@w@w@w@w@w@w@w@w@w@w@w@w@w@w@w@w@w@w@w@w@w@w@w@w@w@w@w@w@w@w@w@w@w@w@w@' 5 6 5 6 5 = l = 5 6 ^ = = w@w@w@w@w@w@w@w@w@u@",
"y@J : '+'+'+'+'+'+'+'+'+'+'+'+'+'+'+'+'+'+'+'+'+'+'+'+'+'+'+'+'+'+'+'+'+'+'+'+'+'+'+'+'+'+'+'+'+'+'+'+'+'+'+'+'+'+'+'+'+'+'+'+'+'+'+'+'+'+'+'+'+'+'+'+'+'+'+'+'+'+'+'+'+'+'+'+'+'+'+'+'+'+'+'+'+- = l ^ '+'+'+'+'+'+'+'+'+2@",
"1@, 8 3+3+3+3+3+3+3+3+3+3+3+3+3+3+3+3+3+3+3+3+3+3+3+3+3+3+3+3+3+3+3+3+3+3+3+3+3+3+3+3+3+3+3+3+3+3+3+3+3+3+3+3+3+3+3+3+3+3+3+3+3+3+3+3+3+3+3+3+3+3+3+3+3+3+3+3+3+3+3+3+3+3+3+3+3+3+3+3+3+3+3+3+3+3+3+= ^ 3+3+3+3+3+3+3+3+3+z@",
"A@[ B@l+l+l+l+l+l+l+l+l+l+l+l+l+l+l+l+l+l+l+l+l+l+l+l+l+l+l+l+l+l+l+l+l+l+l+l+l+l+l+l+l+l+l+l+l+l+l+l+l+l+l+l+l+l+l+l+l+l+l+l+l+l+l+l+l+l+l+l+l+l+l+l+l+l+l+l+l+l+l+l+l+l+l+l+l+l+l+l+l+l+l+l+l+l+l+l+5 l+l+l+l+l+l+l+l+l+a+",
"h@C@D@E@E@E@E@E@E@E@E@E@E@E@E@E@E@E@E@E@E@E@E@E@E@E@E@E@E@E@E@E@E@E@E@E@E@E@E@E@E@E@E@E@E@E@E@E@E@E@E@E@E@E@E@E@E@E@E@E@E@E@E@E@E@E@E@E@E@E@E@E@E@E@E@E@E@E@E@E@E@E@E@E@E@E@E@E@E@E@E@E@E@E@E@E@E@E@E@E@E@E@E@E@E@E@E@E@E@F@"};
