/* XPM */
static const char * valuedetail_xpm[] = {
"21 21 4 1",
" 	c None",
".	c #000000",
"+	c #A0CBDF",
"@	c #337F9E",
"                     ",
"                     ",
"                     ",
"                     ",
"  .    +             ",
"  .    ++            ",
"  .    @+    +       ",
"  .+   @+    @+      ",
"  .+   @+    @+  @   ",
"  .@  @@@+  @@@+ @   ",
"  .@+ @ @+  @ @+@    ",
"  .@+@  @@+@@ @@@    ",
"  .@@@   @+@   @     ",
"  . @    @@@   @     ",
"  . @     @          ",
"  .       @          ",
"  ................   ",
"                     ",
"                     ",
"                     ",
"                     "};
